<svg xmlns="http://www.w3.org/2000/svg" width="16" height="16" viewBox="0 0 16 16" fill="none">
  <path d="M12.3751 3.62502C12.0299 3.27983 11.4703 3.27979 11.1251 3.62494L7.99956 6.75L4.87489 3.62505C4.52972 3.27986 3.97006 3.27986 3.62489 3.62506C3.27976 3.97021 3.27976 4.52979 3.62489 4.87494L6.74967 8L3.62489 11.1251C3.27976 11.4702 3.27976 12.0298 3.62489 12.3749C3.97006 12.7201 4.52972 12.7201 4.87489 12.3749L7.99956 9.25L11.1251 12.3751C11.4703 12.7202 12.0299 12.7202 12.3751 12.375C12.7202 12.0298 12.7202 11.4702 12.3751 11.125L9.25033 8L12.3751 4.87498C12.7202 4.5298 12.7202 3.97019 12.3751 3.62502Z" fill="#353C49"/>
</svg>