<svg xmlns="http://www.w3.org/2000/svg" width="18" height="18" viewBox="0 0 18 18" fill="none">
  <path d="M7.87175 14.5383C9.35089 14.538 10.7874 14.0428 11.9526 13.1316L15.0267 16.2058C15.3521 16.5312 15.8797 16.5312 16.2051 16.2058C16.5305 15.8804 16.5305 15.3528 16.2051 15.0275L13.1309 11.9533C14.0426 10.788 14.5381 9.35115 14.5384 7.87162C14.5384 4.19579 11.5476 1.20496 7.87175 1.20496C4.19591 1.20496 1.20508 4.19579 1.20508 7.87162C1.20508 11.5475 4.19591 14.5383 7.87175 14.5383ZM7.87175 2.87162C10.6292 2.87162 12.8717 5.11412 12.8717 7.87162C12.8717 10.6291 10.6292 12.8716 7.87175 12.8716C5.11424 12.8716 2.87174 10.6291 2.87174 7.87162C2.87174 5.11412 5.11424 2.87162 7.87175 2.87162Z" fill="#353C49"/>
</svg>